<svg xmlns="http://www.w3.org/2000/svg" width="38" height="20" viewBox="0 0 38 20">
  <defs>
    <style>
      .cls-1 {
        fill: #fff;
        fill-rule: evenodd;
        opacity: 0.7;
      }
    </style>
  </defs>
  <path id="_127" data-name="127" class="cls-1" d="M1445.99,34a23.318,23.318,0,0,0-18.79,9.347,1.153,1.153,0,0,0,0,1.305,23.56,23.56,0,0,0,37.58,0,1.153,1.153,0,0,0,0-1.305A23.318,23.318,0,0,0,1445.99,34Zm0,17.647A21.347,21.347,0,0,1,1429.68,44a21.217,21.217,0,0,1,32.62,0A21.254,21.254,0,0,1,1445.99,51.647Zm0-12.941A5.294,5.294,0,1,0,1451.33,44,5.32,5.32,0,0,0,1445.99,38.706Zm0,8.235A2.941,2.941,0,1,1,1448.96,44,2.958,2.958,0,0,1,1445.99,46.941Z" transform="translate(-1427 -34)"/>
</svg>
