<svg xmlns="http://www.w3.org/2000/svg" width="20" height="20" viewBox="0 0 20 20">
  <defs>
    <style>
      .cls-1 {
        fill: #fff;
        fill-rule: evenodd;
      }
    </style>
  </defs>
  <path id="file_pdf" class="cls-1" d="M709.986,2454v2h-4v2h4v2h-4v2h-2v-8h6Zm-7,3v2a3,3,0,0,1-3,3h-3v-8h3A3.009,3.009,0,0,1,702.99,2457Zm-2,.1a1.091,1.091,0,0,0-1-1.1h-1v4h1a0.914,0.914,0,0,0,1-.9v-2Zm-5-.1a3,3,0,0,1-3,3h-1v2h-2v-8h3A3,3,0,0,1,695.993,2457Zm-2,.1a1,1,0,0,0-1-1h-1v2h1A1,1,0,0,0,693.994,2457.1Zm9.974-15.09H690V2452h2v-8h10v6h6v2h2v-3.56Z" transform="translate(-690 -2442)"/>
</svg>
