<svg xmlns="http://www.w3.org/2000/svg" width="34.218" height="34.188" viewBox="0 0 34.218 34.188">
  <defs>
    <style>
      .cls-1 {
        fill: #d40d3f;
        fill-rule: evenodd;
      }
    </style>
  </defs>
  <path id="Shape_1_copy" data-name="Shape 1 copy" class="cls-1" d="M421.544,679.147a17.1,17.1,0,1,0,17.107,17.1A17.121,17.121,0,0,0,421.544,679.147Zm0,32.691a15.6,15.6,0,1,1,15.606-15.595A15.619,15.619,0,0,1,421.544,711.838Zm-2.419-21.3a0.751,0.751,0,0,0-1.126.649V701.3a0.75,0.75,0,0,0,1.126.649l8.761-5.054a0.75,0.75,0,0,0,0-1.3ZM419.5,700v-7.514l6.51,3.758Z" transform="translate(-404.438 -679.156)"/>
</svg>
